<?xml version="1.0" encoding="utf-8"?>
<!-- Generator: Adobe Illustrator 17.1.0, SVG Export Plug-In . SVG Version: 6.00 Build 0)  -->
<!DOCTYPE svg PUBLIC "-//W3C//DTD SVG 1.1//EN" "http://www.w3.org/Graphics/SVG/1.1/DTD/svg11.dtd">
<svg version="1.1" id="Do-Not-Disturb" xmlns="http://www.w3.org/2000/svg" xmlns:xlink="http://www.w3.org/1999/xlink" x="0px"
	 y="0px" viewBox="0 0 1010 1010" enable-background="new 0 0 1010 1010" xml:space="preserve">
<linearGradient id="do-not-disturb-back_1_" gradientUnits="userSpaceOnUse" x1="505" y1="1010" x2="505" y2="-1.257285e-08">
	<stop  offset="0" style="stop-color:#7B37E1"/>
	<stop  offset="1" style="stop-color:#5855D6"/>
</linearGradient>
<path id="do-not-disturb-back" fill="url(#do-not-disturb-back_1_)" d="M1010,783.4561C1010,908.0625,908.7705,1010,785.0664,1010
	H224.9419C101.2041,1010,0,908.0625,0,783.4561V226.5435C0,101.9458,101.2041,0,224.9419,0h560.1245
	C908.7705,0,1010,101.9458,1010,226.5435V783.4561z"/>
<g id="do-not-disturb-do-not-disturb">
	<path fill="#FFFFFF" d="M635.4141,627.0859c-139.4424,0-252.4995-113.0488-252.4995-252.5005
		c0-48.018,13.6567-92.7485,36.9409-130.979c-102.8145,38.1294-176.2491,136.7959-176.2491,252.879
		c0,149.0703,120.8462,269.9082,269.917,269.9082c116.083,0,214.7491-73.4346,252.8702-176.2491
		C728.1631,613.4121,683.4414,627.0859,635.4141,627.0859z"/>
</g>
</svg>
