<?xml version="1.0" encoding="utf-8"?>
<!-- Generator: Adobe Illustrator 17.1.0, SVG Export Plug-In . SVG Version: 6.00 Build 0)  -->
<!DOCTYPE svg PUBLIC "-//W3C//DTD SVG 1.1//EN" "http://www.w3.org/Graphics/SVG/1.1/DTD/svg11.dtd">
<svg version="1.1" id="Facetime" xmlns="http://www.w3.org/2000/svg" xmlns:xlink="http://www.w3.org/1999/xlink" x="0px" y="0px"
	 viewBox="0 0 1010 1010" enable-background="new 0 0 1010 1010" xml:space="preserve">
<linearGradient id="facetime-back_1_" gradientUnits="userSpaceOnUse" x1="505" y1="1010" x2="505" y2="-1.257285e-08">
	<stop  offset="0" style="stop-color:#3AAA35"/>
	<stop  offset="1" style="stop-color:#6CDE66"/>
</linearGradient>
<path id="facetime-back" fill="url(#facetime-back_1_)" d="M1010,783.4561C1010,908.0625,908.7705,1010,785.0664,1010H224.9419
	C101.2124,1010,0,908.0625,0,783.4561V226.5435C0,101.9541,101.2124,0,224.9419,0h560.1245C908.7705,0,1010,101.9541,1010,226.5435
	V783.4561z"/>
<g id="facetime-facetime">
	<rect x="126.25" y="384.499" fill="#FFFFFF" width="17.2144" height="51.6519"/>
	<path fill="#FFFFFF" d="M608.2949,298.4106H212.3301c-28.5191,0-51.6514,23.1324-51.6514,51.6514v309.8931
		c0,28.5185,23.1323,51.6513,51.6514,51.6513h395.9648c28.5108,0,51.6426-23.1328,51.6426-51.6513V350.062
		C659.9375,321.543,636.8057,298.4106,608.2949,298.4106z"/>
	<rect x="849.3047" y="332.8564" fill="#FFFFFF" width="34.4453" height="327.0987"/>
	<polygon fill="#FFFFFF" points="677.1523,556.6514 832.0986,659.9551 832.0986,332.8564 677.1523,436.1509 	"/>
</g>
</svg>
