<?xml version="1.0" encoding="utf-8"?>
<!-- Generator: Adobe Illustrator 17.1.0, SVG Export Plug-In . SVG Version: 6.00 Build 0)  -->
<!DOCTYPE svg PUBLIC "-//W3C//DTD SVG 1.1//EN" "http://www.w3.org/Graphics/SVG/1.1/DTD/svg11.dtd">
<svg version="1.1" id="Globe" xmlns="http://www.w3.org/2000/svg" xmlns:xlink="http://www.w3.org/1999/xlink" x="0px" y="0px"
	 viewBox="0 0 1010 1010" enable-background="new 0 0 1010 1010" xml:space="preserve">
<linearGradient id="globe-back_1_" gradientUnits="userSpaceOnUse" x1="505" y1="1010" x2="505" y2="-1.257285e-08">
	<stop  offset="0" style="stop-color:#E6E6E6"/>
	<stop  offset="1" style="stop-color:#FFFFFF"/>
</linearGradient>
<path id="globe-back" fill="url(#globe-back_1_)" d="M1010,783.4561C1010,908.0625,908.7705,1010,785.0664,1010H224.9463
	C101.2124,1010,0,908.0625,0,783.4561V226.5435C0,101.9375,101.2124,0,224.9463,0h560.1201C908.7705,0,1010,101.9375,1010,226.5435
	V783.4561z"/>
<g id="globe-globe">
	<linearGradient id="SVGID_1_" gradientUnits="userSpaceOnUse" x1="505.0005" y1="799.583" x2="505.0005" y2="210.4165">
		<stop  offset="0" style="stop-color:#2769F1"/>
		<stop  offset="1" style="stop-color:#02ADEF"/>
	</linearGradient>
	<path fill="url(#SVGID_1_)" d="M798.833,490.2725c-7.4775-150.8829-128.2139-271.628-279.1055-279.1055v-0.7505h-29.4589v0.7505
		c-150.8916,7.4775-271.6241,128.2226-279.1055,279.1055h-0.7461v29.455h0.7461
		c7.4814,150.8916,128.2139,271.6281,279.1055,279.1055v0.75h29.4589v-0.75c150.8916-7.4775,271.628-128.2139,279.1055-279.1055
		h0.751v-29.455H798.833z M666.6143,490.2725c-1.087-40.1954-6.584-78.1895-15.6709-112.5679
		c22.9462-13.1343,44.1064-29.0757,62.6523-47.6895c36.8398,43.8453,59.8623,99.4419,63.1416,160.2574H666.6143z M624.6152,366.4336
		c-31.9756,15.7471-67.4072,25.3154-104.8877,27.3476V234.1475C563.7666,243.6143,602.3096,294.9033,624.6152,366.4336z
		 M490.2686,234.1475v159.6337c-37.4805-2.0322-72.9126-11.6005-104.8882-27.3476
		C407.6904,294.9033,446.2295,243.6143,490.2686,234.1475z M490.2686,415.8765v74.396H365.4727
		c1.0537-36.2076,5.8925-70.712,13.8086-102.1314C413.2461,404.2256,450.7012,413.9209,490.2686,415.8765z M490.2686,519.7275
		v89.0988c-38.2774,1.9043-74.5225,11.0937-107.5523,26.3183c-9.9936-34.8076-16.0508-74.0761-17.2436-115.4171H490.2686z
		 M490.2686,630.9209v144.9229c-41.3838-8.8848-78.0171-54.585-100.8038-119.4297
		C420.3486,641.7793,454.3516,632.8604,490.2686,630.9209z M519.7275,775.8438V630.9209
		c35.9375,1.9395,69.9288,10.8584,100.7998,25.4932C597.7656,721.2588,561.1113,766.959,519.7275,775.8438z M640.3203,666.8086
		c18.1504,10.5117,35.1543,22.7949,50.3877,37.0332c-31.3516,29.3115-69.5234,51.2637-111.9443,63.2344
		C603.7344,743.793,624.9609,709.1953,640.3203,666.8086z M519.7275,608.8262v-89.0988h124.792
		c-1.1894,41.3409-7.2334,80.6094-17.2402,115.4171C594.2588,619.9199,558.0088,610.7305,519.7275,608.8262z M519.7275,490.2725
		v-74.396c39.5791-1.9556,77.043-11.6509,110.9834-27.7354c7.9239,31.4194,12.7627,65.9238,13.8086,102.1314H519.7275z
		 M705.9922,321.6523c-2.4619-2.7143-4.8311-5.5302-7.3848-8.1347c-16.1103,16.2783-34.3954,30.289-54.1219,42.1172
		c-15.587-47.9849-38.3741-87.1934-65.7217-112.7115C628.3496,256.9258,672.1367,284.585,705.9922,321.6523z M431.2363,242.9233
		c-27.3515,25.5181-50.1386,64.7266-65.7046,112.7115c-19.7348-11.8282-38.0327-25.8389-54.1259-42.1172
		c-2.5205,2.5542-4.8096,5.2939-7.2246,7.9409C337.9985,284.501,381.7261,256.8921,431.2363,242.9233z M296.4043,330.0151
		c18.5547,18.6138,39.7017,34.5552,62.6484,47.6895c-9.0874,34.3784-14.563,72.3725-15.6543,112.5679H233.2583
		C236.5376,429.457,259.5688,373.8604,296.4043,330.0151z M233.2583,519.7275h110.1401
		c1.2222,45.2784,7.8819,87.9776,19.1065,125.626c-21.2945,11.8701-41.126,26.083-58.7998,42.6651
		c4.999,5.4882,10.1748,10.7656,15.583,15.8232c15.2334-14.2383,32.2451-26.5215,50.4038-37.0332
		c15.3428,42.3867,36.5742,76.9844,61.5444,100.2676C321.3281,736.0957,239.6104,637.8672,233.2583,519.7275z M690.708,703.8418
		c5.4209-5.0576,10.5967-10.335,15.5869-15.8232c-17.6689-16.5821-37.5135-30.795-58.8086-42.6651
		c11.2296-37.6318,17.8887-80.3476,19.1281-125.626h110.123C772.8428,592.2686,740.5811,657.2236,690.708,703.8418z"/>
</g>
</svg>
