<?xml version="1.0" encoding="utf-8"?>
<!-- Generator: Adobe Illustrator 17.1.0, SVG Export Plug-In . SVG Version: 6.00 Build 0)  -->
<!DOCTYPE svg PUBLIC "-//W3C//DTD SVG 1.1//EN" "http://www.w3.org/Graphics/SVG/1.1/DTD/svg11.dtd">
<svg version="1.1" id="Keyboard" xmlns="http://www.w3.org/2000/svg" xmlns:xlink="http://www.w3.org/1999/xlink" x="0px" y="0px"
	 viewBox="0 0 1010 1010" enable-background="new 0 0 1010 1010" xml:space="preserve">
<linearGradient id="keyboard-label_1_" gradientUnits="userSpaceOnUse" x1="505" y1="1010" x2="505" y2="-1.318949e-08">
	<stop  offset="0" style="stop-color:#E6E6E6"/>
	<stop  offset="1" style="stop-color:#FFFFFF"/>
</linearGradient>
<path id="keyboard-label" fill="url(#keyboard-label_1_)" d="M798.791,1010H211.2305C94.7676,1010,0,915.2285,0,798.7656v-587.582
	C0,94.7383,94.7676,0,211.2305,0H798.791C915.2539,0,1010,94.7383,1010,211.1836v587.582C1010,915.2285,915.2539,1010,798.791,1010z
	"/>
<g id="keyboard-keyboard">
	<linearGradient id="SVGID_1_" gradientUnits="userSpaceOnUse" x1="505" y1="1017.8507" x2="505" y2="-8.0265">
		<stop  offset="0" style="stop-color:#E6E6E6"/>
		<stop  offset="1" style="stop-color:#FFFFFF"/>
	</linearGradient>
	<path fill="url(#SVGID_1_)" d="M490.5342,549.8906V1010H212.2417V549.8906h75.2139h8.2363V0h123.3965v549.8906h8.2363H490.5342z
		 M912.5303,33.5264v516.3642h-8.2608h-67.6777v456.5176C935.0479,988.5283,1010,902.3047,1010,798.7744V211.2007
		C1010,136.6357,971.0527,71.1084,912.5303,33.5264z M118.9326,549.8906h-8.2363V25.4927C44.8188,61.2959,0,131.1143,0,211.2007
		v587.5737c0,105.25,77.4902,192.5361,178.3779,208.4014V549.8906H118.9326z M735.7676,549.8906h-8.2363V0H604.1387v549.8906
		h-8.2617h-71.462V1010h274.376c1.332,0,2.6465-0.1855,3.9706-0.2021V549.8906H735.7676z"/>
	<g>
		<rect x="287.4556" fill="#666666" width="8.2363" height="549.8906"/>
		<rect x="595.877" fill="#666666" width="8.2617" height="549.8906"/>
		<path fill="#666666" d="M912.5303,549.8906V33.5264c-2.7139-1.753-5.4707-3.4141-8.2608-5.0323v521.3965H912.5303z"/>
	</g>
	<linearGradient id="SVGID_2_" gradientUnits="userSpaceOnUse" x1="815.9004" y1="1018.0237" x2="815.9004" y2="-7.6785">
		<stop  offset="0" style="stop-color:#212121"/>
		<stop  offset="1" style="stop-color:#545454"/>
	</linearGradient>
	<path fill="url(#SVGID_2_)" d="M904.2695,549.8906V28.4941C873.1875,10.4873,837.2324,0,798.791,0h-71.2597v549.8906h8.2363
		h66.9941v459.9073c11.5322-0.211,22.8281-1.3829,33.8301-3.3897V549.8906H904.2695z"/>
	<linearGradient id="SVGID_3_" gradientUnits="userSpaceOnUse" x1="507.4827" y1="1018.0285" x2="507.4827" y2="-7.677">
		<stop  offset="0" style="stop-color:#212121"/>
		<stop  offset="1" style="stop-color:#545454"/>
	</linearGradient>
	<polygon fill="url(#SVGID_3_)" points="595.877,549.8906 595.877,0 419.0884,0 419.0884,549.8906 427.3247,549.8906 
		490.5342,549.8906 490.5342,1010 524.415,1010 524.415,549.8906 	"/>
	<linearGradient id="SVGID_4_" gradientUnits="userSpaceOnUse" x1="199.0759" y1="1018.0285" x2="199.0759" y2="-7.677">
		<stop  offset="0" style="stop-color:#212121"/>
		<stop  offset="1" style="stop-color:#545454"/>
	</linearGradient>
	<path fill="url(#SVGID_4_)" d="M287.4556,549.8906V0h-76.2251c-36.3721,0-70.6241,9.231-100.5342,25.4927v524.3979h8.2363h59.4453
		v457.2852c10.7315,1.6865,21.6485,2.8242,32.8526,2.8242h1.0112V549.8906H287.4556z"/>
</g>
</svg>
