<?xml version="1.0" encoding="utf-8"?>
<!-- Generator: Adobe Illustrator 17.1.0, SVG Export Plug-In . SVG Version: 6.00 Build 0)  -->
<!DOCTYPE svg PUBLIC "-//W3C//DTD SVG 1.1//EN" "http://www.w3.org/Graphics/SVG/1.1/DTD/svg11.dtd">
<svg version="1.1" id="Layout" xmlns="http://www.w3.org/2000/svg" xmlns:xlink="http://www.w3.org/1999/xlink" x="0px" y="0px"
	 viewBox="0 0 1010 1010" enable-background="new 0 0 1010 1010" xml:space="preserve">
<linearGradient id="layout-back_1_" gradientUnits="userSpaceOnUse" x1="505" y1="1010" x2="505" y2="-1.257285e-08">
	<stop  offset="0" style="stop-color:#FF404F"/>
	<stop  offset="1" style="stop-color:#FF9F2E"/>
</linearGradient>
<path id="layout-back" fill="url(#layout-back_1_)" d="M1010,783.4561C1010,908.0625,908.7705,1010,785.0664,1010H224.9463
	C101.2124,1010,0,908.0625,0,783.4561V226.5435C0,101.9414,101.2124,0,224.9463,0h560.1201C908.7705,0,1010,101.9414,1010,226.5435
	V783.4561z"/>
<g id="layout-layout">
	<path fill="#FFFFFF" d="M473.4375,441.875c0,17.3491-14.2129,31.5625-31.5625,31.5625H284.0625
		c-17.3535,0-31.5625-14.2134-31.5625-31.5625V284.0625c0-17.3535,14.209-31.5625,31.5625-31.5625H441.875
		c17.3496,0,31.5625,14.209,31.5625,31.5625V441.875z"/>
	<path fill="#FFFFFF" d="M757.5,441.875c0,17.3491-14.2129,31.5625-31.5625,31.5625H568.125
		c-17.3496,0-31.5625-14.2134-31.5625-31.5625V284.0625c0-17.3535,14.2129-31.5625,31.5625-31.5625h157.8125
		c17.3496,0,31.5625,14.209,31.5625,31.5625V441.875z"/>
	<path fill="#FFFFFF" d="M473.4375,725.9375c0,17.3496-14.2129,31.5625-31.5625,31.5625H284.0625
		c-17.3535,0-31.5625-14.2129-31.5625-31.5625V568.125c0-17.3496,14.209-31.5625,31.5625-31.5625H441.875
		c17.3496,0,31.5625,14.2129,31.5625,31.5625V725.9375z"/>
	<path fill="#FFFFFF" d="M757.5,725.9375c0,17.3496-14.2129,31.5625-31.5625,31.5625H568.125
		c-17.3496,0-31.5625-14.2129-31.5625-31.5625V568.125c0-17.3496,14.2129-31.5625,31.5625-31.5625h157.8125
		c17.3496,0,31.5625,14.2129,31.5625,31.5625V725.9375z"/>
</g>
</svg>
