<?xml version="1.0" encoding="utf-8"?>
<!-- Generator: Adobe Illustrator 17.1.0, SVG Export Plug-In . SVG Version: 6.00 Build 0)  -->
<!DOCTYPE svg PUBLIC "-//W3C//DTD SVG 1.1//EN" "http://www.w3.org/Graphics/SVG/1.1/DTD/svg11.dtd">
<svg version="1.1" id="Mail" xmlns="http://www.w3.org/2000/svg" xmlns:xlink="http://www.w3.org/1999/xlink" x="0px" y="0px"
	 viewBox="0 0 1010 1010" enable-background="new 0 0 1010 1010" xml:space="preserve">
<linearGradient id="mail-back_1_" gradientUnits="userSpaceOnUse" x1="505" y1="1010" x2="505" y2="-1.257285e-08">
	<stop  offset="0" style="stop-color:#438BF0"/>
	<stop  offset="1" style="stop-color:#2DCCD4"/>
</linearGradient>
<path id="mail-back" fill="url(#mail-back_1_)" d="M1010,783.4561C1010,908.0625,908.7705,1010,785.0664,1010H224.9419
	C101.2124,1010,0,908.0625,0,783.4561V226.5435C0,101.9458,101.2124,0,224.9419,0h560.1245C908.7705,0,1010,101.9458,1010,226.5435
	V783.4561z"/>
<g id="mail-mail">
	<path id="mail-icon" fill="#FFFFFF" d="M612.7793,482.584L778.542,340.7256v323.0732L612.7793,482.584z M231.4585,339.6592
		v332.6455L407.4043,484.228L231.4585,339.6592z M755.5947,320.4893h-499.706l254.9111,209.3964L755.5947,320.4893z
		 M589.6563,502.3276l-68.8165,58.8931l-9.6181,8.2529l-9.855-8.0421l-70.4424-57.9365L256.9092,689.502h504.0556L589.6563,502.3276
		z"/>
</g>
</svg>
