<?xml version="1.0" encoding="utf-8"?>
<!-- Generator: Adobe Illustrator 17.1.0, SVG Export Plug-In . SVG Version: 6.00 Build 0)  -->
<!DOCTYPE svg PUBLIC "-//W3C//DTD SVG 1.1//EN" "http://www.w3.org/Graphics/SVG/1.1/DTD/svg11.dtd">
<svg version="1.1" id="Maps" xmlns="http://www.w3.org/2000/svg" xmlns:xlink="http://www.w3.org/1999/xlink" x="0px" y="0px"
	 viewBox="0 0 1010 1010" enable-background="new 0 0 1010 1010" xml:space="preserve">
<linearGradient id="maps-back_1_" gradientUnits="userSpaceOnUse" x1="505" y1="1010" x2="505" y2="-1.257285e-08">
	<stop  offset="0" style="stop-color:#3AAA35"/>
	<stop  offset="1" style="stop-color:#6CDE66"/>
</linearGradient>
<path id="maps-back" fill="url(#maps-back_1_)" d="M1010,783.4561C1010,908.0625,908.7705,1010,785.0664,1010H224.9502
	C101.2124,1010,0,908.0625,0,783.4561V226.5435C0,101.9458,101.2124,0,224.9502,0h560.1162C908.7705,0,1010,101.9458,1010,226.5435
	V783.4561z"/>
<g id="maps-maps">
	<g id="maps-icon">
		<linearGradient id="SVGID_1_" gradientUnits="userSpaceOnUse" x1="506.8968" y1="5196.2939" x2="506.8968" y2="-29504.3379">
			<stop  offset="0" style="stop-color:#E6E6E6"/>
			<stop  offset="1" style="stop-color:#FFFFFF"/>
		</linearGradient>
		<path fill="url(#SVGID_1_)" d="M206.7158,837.9746h136.2608v32.8945h-226.649v116.3438
			c-15.4775-7.8311-29.8593-17.4414-42.8715-28.6875v-87.6563H12.9443c-3.8735-10.622-7.0097-21.5644-9.1508-32.8945h169.9311
			V325.1089v-1.1338h32.9912v1.1338V837.9746z M480.481,0h-32.9576v99.6904h32.9576V0z M602.293,0h-33.0049v99.6904h33.0049V0z
			 M154.626,7.9287c-11.419,3.1821-22.416,7.3086-32.9785,12.2822v109.2422h32.9785V7.9287z M605.0664,699.8037v-30.1963h67.5762
			h133.1035h91.7959l79.5303-52.916H1010v-37.2363h-32.9277l-79.5303,52.874h-91.7959H672.6426h-67.5762V488.814
			c0-54.8716-44.5703-99.3072-99.5815-99.3072h-49.7676c-55.0064,0-99.5601,44.4356-99.5601,99.3072v210.9897
			c0,54.8467,44.5537,99.375,99.5601,99.375h38.9556l62.6953,92.8662l115.2744-0.1172l133.1035-0.1523l182.4873-0.1934
			c4.6201-9.417,8.751-19.1201,11.9619-29.2529l-194.4492,0.4131l-133.1035,0.2783l-83.8047,0.1768l-50.9941-69.4981
			C576.9434,780.2783,605.0664,743.3457,605.0664,699.8037z M253.832,205.9189V0h-32.9873v205.9189v25.2735h32.9873V205.9189z"/>
		<path fill="#E4DDCA" d="M580.1973,686.7881V499.5918c0-45.6914-35.6855-82.7461-79.6524-82.7461h-39.8496
			c-44.0181,0-79.6562,37.0547-79.6562,82.7461v187.1963c0,45.6494,35.6381,82.7754,79.6562,82.7754h39.8496
			C544.5117,769.5635,580.1973,732.4375,580.1973,686.7881z"/>
		<linearGradient id="SVGID_2_" gradientUnits="userSpaceOnUse" x1="505" y1="325.1089" x2="505" y2="205.9189">
			<stop  offset="0" style="stop-color:#FFA400"/>
			<stop  offset="1" style="stop-color:#FFCF00"/>
		</linearGradient>
		<path fill="url(#SVGID_2_)" d="M1009.7383,205.9189H805.7461H755.915c24.7178,7.4483,42.7159,30.3233,42.7159,57.3545
			c0,33.1348-26.9092,59.9512-60.1153,59.9512c-33.1816,0-60.124-26.8164-60.124-59.9512c0-27.0312,18.04-49.9062,42.7236-57.3545
			h-48.4726H253.832h-32.9873H0.2656C0.2236,207.6934,0,209.4131,0,211.1963v113.9126h173.7246h32.9912h465.9268h133.1035H1010
			V211.1963C1010,209.4131,1009.7813,207.6934,1009.7383,205.9189z"/>
		<linearGradient id="SVGID_3_" gradientUnits="userSpaceOnUse" x1="739.1943" y1="1010" x2="739.1943" y2="-2.675733e-09">
			<stop  offset="0" style="stop-color:#438BF0"/>
			<stop  offset="1" style="stop-color:#2DCCD4"/>
		</linearGradient>
		<path fill="url(#SVGID_3_)" d="M798.791,0H672.6426v205.9189v119.19v307.2202v37.2783v193.4131v28.9072V1010H798.791
			c2.3438,0,4.6191-0.2871,6.9551-0.3545V891.7754v-29.0332V669.6074v-37.2783V325.1089v-119.19V0.354
			C803.4102,0.2695,801.1348,0,798.791,0z M798.6309,263.2734c0,33.1348-26.9092,59.9512-60.1153,59.9512
			c-33.1816,0-60.124-26.8164-60.124-59.9512c0-27.0312,18.04-49.9062,42.7236-57.3545c5.5137-1.6523,11.3477-2.5712,17.4004-2.5712
			c6.0528,0,11.8867,0.9189,17.3994,2.5712C780.6328,213.3672,798.6309,236.2422,798.6309,263.2734z"/>
		<g>
			<path fill="#FD462A" d="M738.5156,333.3247c-38.7217,0-70.2236-31.4248-70.2236-70.0513
				c0-30.5962,20.5215-58.1572,49.9053-67.0239c6.6533-1.9937,13.4834-3.002,20.3184-3.002c6.8359,0,13.666,1.0083,20.2988,2.9966
				c14.1455,4.2627,26.8477,13.1089,35.7812,24.9136c9.2471,12.2197,14.1348,26.7827,14.1348,42.1157
				C808.7305,301.8999,777.2324,333.3247,738.5156,333.3247z"/>
			<path fill="#FFFFFF" d="M738.5156,203.3477c6.0528,0,11.8867,0.9189,17.3994,2.5712
				c24.7178,7.4483,42.7159,30.3233,42.7159,57.3546c0,33.1348-26.9092,59.9512-60.1153,59.9512
				c-33.1816,0-60.124-26.8164-60.124-59.9512c0-27.0312,18.04-49.9062,42.7236-57.3546
				C726.6289,204.2666,732.4629,203.3477,738.5156,203.3477 M738.5156,183.1477c-7.8179,0-15.6231,1.1511-23.1989,3.4213
				c-16.1849,4.8838-30.705,14.9969-40.9225,28.4877c-10.5998,13.9955-16.2026,30.6686-16.2026,48.2167
				c0,44.1955,36.0331,80.1512,80.324,80.1512c44.286,0,80.3153-35.9557,80.3153-80.1512c0-17.551-5.5953-34.2219-16.1811-48.2104
				c-10.2147-13.498-24.7423-23.6143-40.9067-28.4851C754.1395,184.2989,746.3342,183.1477,738.5156,183.1477L738.5156,183.1477z"/>
		</g>
	</g>
</g>
</svg>
