<?xml version="1.0" encoding="utf-8"?>
<!-- Generator: Adobe Illustrator 17.1.0, SVG Export Plug-In . SVG Version: 6.00 Build 0)  -->
<!DOCTYPE svg PUBLIC "-//W3C//DTD SVG 1.1//EN" "http://www.w3.org/Graphics/SVG/1.1/DTD/svg11.dtd">
<svg version="1.1" id="Notes-2" xmlns="http://www.w3.org/2000/svg" xmlns:xlink="http://www.w3.org/1999/xlink" x="0px" y="0px"
	 viewBox="0 0 1010 1010" enable-background="new 0 0 1010 1010" xml:space="preserve">
<linearGradient id="notes-2-back_1_" gradientUnits="userSpaceOnUse" x1="505" y1="1010" x2="505" y2="-1.257285e-08">
	<stop  offset="0" style="stop-color:#E6E6E6"/>
	<stop  offset="1" style="stop-color:#FFFFFF"/>
</linearGradient>
<path id="notes-2-back" fill="url(#notes-2-back_1_)" d="M1010,783.4561C1010,908.0625,908.7705,1010,785.0664,1010H224.9502
	C101.2124,1010,0,908.0625,0,783.4561V226.5435C0,101.9458,101.2124,0,224.9502,0h560.1162C908.7705,0,1010,101.9458,1010,226.5435
	V783.4561z"/>
<g id="notes-2-notes-2">
	<g>
		<rect x="386.7251" y="185.6909" fill="#C8C8C8" width="500.3462" height="2.7359"/>
		<rect x="386.7251" y="279.7632" fill="#C8C8C8" width="500.3462" height="2.727"/>
		<rect x="386.7251" y="373.8096" fill="#C8C8C8" width="500.3462" height="2.7187"/>
		<rect x="386.7251" y="467.8481" fill="#C8C8C8" width="500.3462" height="2.7613"/>
		<rect x="386.7251" y="563.0498" fill="#C8C8C8" width="500.3462" height="2.7236"/>
		<rect x="386.7251" y="657.1133" fill="#C8C8C8" width="500.3462" height="2.7402"/>
		<rect x="386.7251" y="751.1689" fill="#C8C8C8" width="500.3462" height="2.7227"/>
		<rect x="386.7251" y="845.1992" fill="#C8C8C8" width="500.3462" height="2.7559"/>
	</g>
	<path opacity="0.12" fill="#1D1D1B" d="M231.3911,0C114.9453,0,20.1987,94.7422,20.1987,211.2134v587.561
		C20.1987,915.2285,114.9453,1010,231.3911,1010h86.4087V0H231.3911z"/>
	
		<linearGradient id="SVGID_1_" gradientUnits="userSpaceOnUse" x1="-674.0693" y1="410.9473" x2="335.9307" y2="410.9473" gradientTransform="matrix(0 -1 1 0 -262.1465 335.9307)">
		<stop  offset="0" style="stop-color:#7B37E1"/>
		<stop  offset="1" style="stop-color:#02ADEF"/>
	</linearGradient>
	<path fill="url(#SVGID_1_)" d="M211.2007,0C94.7383,0,0,94.7422,0,211.2134v587.561C0,915.2285,94.7383,1010,211.2007,1010h86.4009
		V0H211.2007z"/>
</g>
</svg>
