<?xml version="1.0" encoding="utf-8"?>
<!-- Generator: Adobe Illustrator 17.1.0, SVG Export Plug-In . SVG Version: 6.00 Build 0)  -->
<!DOCTYPE svg PUBLIC "-//W3C//DTD SVG 1.1//EN" "http://www.w3.org/Graphics/SVG/1.1/DTD/svg11.dtd">
<svg version="1.1" id="Notifications" xmlns="http://www.w3.org/2000/svg" xmlns:xlink="http://www.w3.org/1999/xlink" x="0px"
	 y="0px" viewBox="0 0 1010 1010" enable-background="new 0 0 1010 1010" xml:space="preserve">
<linearGradient id="notifications-back_1_" gradientUnits="userSpaceOnUse" x1="505" y1="1010" x2="505" y2="-1.257285e-08">
	<stop  offset="0" style="stop-color:#FF2C55"/>
	<stop  offset="1" style="stop-color:#FF4166"/>
</linearGradient>
<path id="notifications-back" fill="url(#notifications-back_1_)" d="M1010,783.4561C1010,908.0625,908.7705,1010,785.0664,1010
	H224.9502C101.2124,1010,0,908.0625,0,783.4561V226.5435C0,101.9458,101.2124,0,224.9502,0h560.1162
	C908.7705,0,1010,101.9458,1010,226.5435V783.4561z"/>
<g id="notifications-notifications">
	<g>
		<path fill="#FFFFFF" d="M705.2578,705.2578c0,48.002-39.0478,87.0752-87.0664,87.0752H304.7417
			c-48.0098,0-87.0669-39.0732-87.0669-87.0752v-313.458c0-48.001,39.0571-87.0581,87.0669-87.0581H513.709v-34.8335H304.7417
			c-67.3149,0-121.8916,54.5772-121.8916,121.8916v313.458c0,67.332,54.5767,121.8926,121.8916,121.8926h313.4497
			c67.3232,0,121.9004-54.5606,121.9004-121.8926V496.2832h-34.834V705.2578z"/>
		<path fill="#FFFFFF" d="M696.5586,182.8501c-72.1289,0-130.6084,58.4712-130.6084,130.5913
			c0,72.1284,58.4795,130.6001,130.6084,130.6001c72.1367,0,130.5918-58.4717,130.5918-130.6001
			C827.1504,241.3213,768.6953,182.8501,696.5586,182.8501z"/>
	</g>
</g>
</svg>
