<?xml version="1.0" encoding="utf-8"?>
<!-- Generator: Adobe Illustrator 17.1.0, SVG Export Plug-In . SVG Version: 6.00 Build 0)  -->
<!DOCTYPE svg PUBLIC "-//W3C//DTD SVG 1.1//EN" "http://www.w3.org/Graphics/SVG/1.1/DTD/svg11.dtd">
<svg version="1.1" id="Passcode" xmlns="http://www.w3.org/2000/svg" xmlns:xlink="http://www.w3.org/1999/xlink" x="0px" y="0px"
	 viewBox="0 0 1010 1010" enable-background="new 0 0 1010 1010" xml:space="preserve">
<linearGradient id="passcode-back_1_" gradientUnits="userSpaceOnUse" x1="505" y1="1010" x2="505" y2="-1.257285e-08">
	<stop  offset="0" style="stop-color:#FF2C55"/>
	<stop  offset="1" style="stop-color:#FF4166"/>
</linearGradient>
<path id="passcode-back" fill="url(#passcode-back_1_)" d="M1010,783.4561C1010,908.0625,908.7705,1010,785.0664,1010H224.9419
	C101.2124,1010,0,908.0625,0,783.4561V226.5435C0,101.9458,101.2124,0,224.9419,0h560.1245C908.7705,0,1010,101.9458,1010,226.5435
	V783.4561z"/>
<g id="passcode-passcode">
	<path fill="#FFFFFF" d="M643.2207,470.7148v-88.1543c0-76.6132-62.4502-139.3168-138.7773-139.3168
		c-76.3179,0-138.7598,62.7036-138.7598,139.3168v88.1543h-52.2422v296.0411h383.1084V470.7148H643.2207z M523.4961,607.0889
		v91.0966h-35.9043v-90.8349c-20.2578-5.9854-34.8418-21.9268-34.8418-40.8613c0-24.042,23.3936-43.5332,52.25-43.5332
		c28.8477,0,52.2422,19.4912,52.2422,43.5332C557.2422,585.0947,543.1797,600.8418,523.4961,607.0889z M590.9795,470.7148H417.9248
		v-88.1543c0-48.0097,38.8125-87.0751,86.5186-87.0751c47.7148,0,86.5361,39.0654,86.5361,87.0751V470.7148z"/>
</g>
</svg>
