<?xml version="1.0" encoding="utf-8"?>
<!-- Generator: Adobe Illustrator 17.1.0, SVG Export Plug-In . SVG Version: 6.00 Build 0)  -->
<!DOCTYPE svg PUBLIC "-//W3C//DTD SVG 1.1//EN" "http://www.w3.org/Graphics/SVG/1.1/DTD/svg11.dtd">
<svg version="1.1" id="Personal-Hotspots" xmlns="http://www.w3.org/2000/svg" xmlns:xlink="http://www.w3.org/1999/xlink" x="0px"
	 y="0px" viewBox="0 0 1010 1010" enable-background="new 0 0 1010 1010" xml:space="preserve">
<linearGradient id="personal-hotspots-back_1_" gradientUnits="userSpaceOnUse" x1="505" y1="1010" x2="505" y2="-1.250828e-08">
	<stop  offset="0" style="stop-color:#4CD963"/>
	<stop  offset="1" style="stop-color:#5EDD73"/>
</linearGradient>
<path id="personal-hotspots-back" fill="url(#personal-hotspots-back_1_)" d="M783.6172,1010H226.375
	C101.3516,1010,0,908.6445,0,783.6162V226.375C0,101.3472,101.3516,0,226.375,0h557.2422C908.6445,0,1010,101.3472,1010,226.375
	v557.2412C1010,908.6445,908.6445,1010,783.6172,1010z"/>
<g id="personal-hotspots-personal-hotspots">
	<path fill="#FFFFFF" d="M731.375,433.8242v62.2988c21.3027,18.875,34.8252,46.3409,34.8252,76.959v3.1359
		c0,56.8281-46.0791,102.915-102.915,102.915H486.0195c-56.8359,0-102.915-46.0869-102.915-102.915v-3.1359
		c0-56.8281,46.0791-102.9072,102.915-102.9072h80.2676c14.2471,0,25.7793-11.5322,25.7793-25.7876v-0.6831
		c0-14.2549-11.5322-25.7793-25.7793-25.7793h-80.2676c-85.6884,0-155.1572,69.4727-155.1572,155.1572v3.1359
		c0,85.6844,69.4688,155.1572,155.1572,155.1572h177.2657c85.6836,0,155.165-69.4727,155.165-155.1572v-3.1359
		C818.4502,511.8535,782.8916,459.0557,731.375,433.8242z"/>
	<path fill="#FFFFFF" d="M541.3926,296.0332H364.1279c-85.6967,0-155.1699,69.4727-155.1699,155.1572v3.1358
		c0,61.2285,35.5674,114.0175,87.0713,139.25v-62.2823c-21.2905-18.8837-34.8252-46.3242-34.8252-76.9677v-3.1358
		c0-56.8359,46.0835-102.9155,102.9238-102.9155h177.2647c56.8281,0,102.916,46.0796,102.916,102.9155v3.1358
		c0,56.8281-46.0879,102.916-102.916,102.916h-80.2715c-14.251,0-25.7754,11.5322-25.7754,25.7705v0.6826
		c0,14.2559,11.5244,25.7881,25.7754,25.7881h80.2715c85.6933,0,155.1572-69.4727,155.1572-155.1572v-3.1358
		C696.5498,365.5059,627.0859,296.0332,541.3926,296.0332z"/>
</g>
</svg>
