<?xml version="1.0" encoding="utf-8"?>
<!-- Generator: Adobe Illustrator 17.1.0, SVG Export Plug-In . SVG Version: 6.00 Build 0)  -->
<!DOCTYPE svg PUBLIC "-//W3C//DTD SVG 1.1//EN" "http://www.w3.org/Graphics/SVG/1.1/DTD/svg11.dtd">
<svg version="1.1" id="Podcasts" xmlns="http://www.w3.org/2000/svg" xmlns:xlink="http://www.w3.org/1999/xlink" x="0px" y="0px"
	 viewBox="0 0 1010 1010" enable-background="new 0 0 1010 1010" xml:space="preserve">
<linearGradient id="podcasts-back_1_" gradientUnits="userSpaceOnUse" x1="505" y1="1010" x2="505" y2="-1.257285e-08">
	<stop  offset="0" style="stop-color:#7A6BFF"/>
	<stop  offset="1" style="stop-color:#FC61FF"/>
</linearGradient>
<path id="podcasts-back" fill="url(#podcasts-back_1_)" d="M1010,783.4561C1010,908.0537,908.7705,1010,785.0664,1010H224.9463
	C101.2124,1010,0,908.0537,0,783.4561V226.5435C0,101.9458,101.2124,0,224.9463,0h560.1201C908.7705,0,1010,101.9458,1010,226.5435
	V783.4561z"/>
<g id="podcasts-podcasts">
	<path fill="#FFFFFF" d="M726.4434,453.8921c0-122.2964-99.1465-221.4307-221.4434-221.4307
		c-122.2964,0-221.439,99.1343-221.439,221.4307c0,87.0542,50.2564,162.3354,123.316,198.5181l-3.7803-44.1241v-1.0792
		c0-5.3954,0.7412-10.6053,2.0146-15.6465c-42.5976-30.9804-70.4467-81.0722-70.4467-137.6684
		c0-93.9243,76.4194-170.3316,170.3354-170.3316c93.9199,0,170.3398,76.4073,170.3398,170.3316
		c0,56.5962-27.8535,106.688-70.4589,137.686c1.2812,5.0235,2.0234,10.2334,2.0234,15.6288l-0.0342,1.4337l-3.7431,43.7696
		C676.1826,616.2275,726.4434,540.9463,726.4434,453.8921z"/>
	<path fill="#FFFFFF" d="M862.709,470.9297c0-197.5527-160.1563-357.7085-357.709-357.7085
		c-197.5566,0-357.708,160.1558-357.708,357.7085c0,168.666,116.7617,309.9726,273.8447,347.7226l-4.6494-54.1894
		C290.4526,726.376,198.3955,609.2305,198.3955,470.9297c0-169.0669,137.5464-306.6094,306.6045-306.6094
		c169.0586,0,306.6045,137.5425,306.6045,306.6094c0,138.3008-92.0566,255.4463-218.0879,293.5332l-4.6367,54.1894
		C745.9424,780.8848,862.709,639.5957,862.709,470.9297z"/>
	<path fill="#FFFFFF" d="M590.1699,436.8589c0,47.0488-38.1299,85.1782-85.1699,85.1782s-85.1699-38.1294-85.1699-85.1782
		c0-47.0401,38.1299-85.1694,85.1699-85.1694S590.1699,389.8188,590.1699,436.8589z M581.6465,607.207
		c0-28.2245-31.3936-51.1035-59.6094-51.1035H505h-17.0332c-28.2158,0-59.6221,22.8789-59.6221,51.1035L448.8174,846
		c2.8789,28.8223,27.1406,50.7832,56.1064,50.7832H505h0.0718c28.979,0,53.2231-21.9609,56.1157-50.7832L581.6465,607.207z"/>
</g>
</svg>
