<?xml version="1.0" encoding="utf-8"?>
<!-- Generator: Adobe Illustrator 17.1.0, SVG Export Plug-In . SVG Version: 6.00 Build 0)  -->
<!DOCTYPE svg PUBLIC "-//W3C//DTD SVG 1.1//EN" "http://www.w3.org/Graphics/SVG/1.1/DTD/svg11.dtd">
<svg version="1.1" id="Search" xmlns="http://www.w3.org/2000/svg" xmlns:xlink="http://www.w3.org/1999/xlink" x="0px" y="0px"
	 viewBox="0 0 1010 1010" enable-background="new 0 0 1010 1010" xml:space="preserve">
<linearGradient id="search-back_1_" gradientUnits="userSpaceOnUse" x1="505" y1="1010" x2="505" y2="-1.257285e-08">
	<stop  offset="0" style="stop-color:#FFA400"/>
	<stop  offset="1" style="stop-color:#FFCF00"/>
</linearGradient>
<path id="search-back" fill="url(#search-back_1_)" d="M1010,783.4561C1010,908.0625,908.7705,1010,785.0664,1010H224.9502
	C101.2124,1010,0,908.0625,0,783.4561V226.5435C0,101.9458,101.2124,0,224.9502,0h560.1162C908.7705,0,1010,101.9458,1010,226.5435
	V783.4561z"/>
<g id="search-search">
	<path fill="#FFFFFF" d="M753.7988,709.2461L617.0449,572.5088c57.4356-78.8682,50.7666-189.8135-20.3495-260.9429
		c-78.7461-78.7505-206.4043-78.7505-285.1504,0c-78.7295,78.7251-78.7295,206.3833,0,285.1294
		c71.1504,71.1162,182.0996,77.7676,260.9639,20.333L709.2627,753.791c4.9404,4.9482,12.8984,4.9229,17.8135,0.0166l26.7226-26.7236
		C758.7305,722.1436,758.7305,714.1777,753.7988,709.2461 M356.1064,552.125c-54.121-54.1055-54.1464-141.8887,0-196.0186
		c54.1221-54.1508,141.9053-54.1337,196.0352,0c54.1221,54.1299,54.1221,141.8926,0,196.0186
		C497.9946,606.2627,410.2114,606.2627,356.1064,552.125"/>
</g>
</svg>
