<?xml version="1.0" encoding="utf-8"?>
<!-- Generator: Adobe Illustrator 17.1.0, SVG Export Plug-In . SVG Version: 6.00 Build 0)  -->
<!DOCTYPE svg PUBLIC "-//W3C//DTD SVG 1.1//EN" "http://www.w3.org/Graphics/SVG/1.1/DTD/svg11.dtd">
<svg version="1.1" id="Search-Friends" xmlns="http://www.w3.org/2000/svg" xmlns:xlink="http://www.w3.org/1999/xlink" x="0px"
	 y="0px" viewBox="0 0 1010 1010" enable-background="new 0 0 1010 1010" xml:space="preserve">
<linearGradient id="search-friends-back_1_" gradientUnits="userSpaceOnUse" x1="505" y1="1010" x2="505" y2="-1.257285e-08">
	<stop  offset="0" style="stop-color:#FFA400"/>
	<stop  offset="1" style="stop-color:#FFCF00"/>
</linearGradient>
<path id="search-friends-back" fill="url(#search-friends-back_1_)" d="M1010,783.4561C1010,908.0625,908.7705,1010,785.0664,1010
	H224.9419C101.2124,1010,0,908.0625,0,783.4561V226.5435C0,101.9414,101.2124,0,224.9419,0h560.1245
	C908.7705,0,1010,101.9414,1010,226.5435V783.4561z"/>
<g id="search-friends-search-friends">
	<g>
		<path fill="#FFFFFF" d="M357.6157,340.2915c33.5269,0,60.6802-27.1577,60.6802-60.6841c0-33.5273-27.1533-60.6762-60.6802-60.6762
			c-33.5097,0-60.6889,27.1489-60.6889,60.6762C296.9268,313.1338,324.106,340.2915,357.6157,340.2915z"/>
		<path fill="#FFFFFF" d="M652.3672,340.2915c33.5185,0,60.6973-27.1577,60.6973-60.6841c0-33.5273-27.1788-60.6762-60.6973-60.6762
			c-33.501,0-60.6885,27.1489-60.6885,60.6762C591.6787,313.1338,618.8662,340.2915,652.3672,340.2915z"/>
		<path fill="#FFFFFF" d="M869.0986,392.3984v-0.0888c0-14.3604-11.6504-26.0152-26.0068-26.0152H166.8833
			c-14.3394,0-25.9985,11.6548-25.9985,26.0152v0.0888c0,14.3604,11.6591,26.0157,25.9985,26.0157h95.3789
			c19.145,0,34.6646,15.5283,34.6646,34.6855v24.1016l-54.6612,264.7617c-3.1777,15.2676,6.6602,30.2226,21.9522,33.3838
			l0.1519,0.0254c15.2588,3.1611,30.2139-6.6855,33.375-21.9688l36.9829-179.0986c2.0743-10.0742,10.9424-25.957,21.2359-25.957l0,0
			c10.2934,0,19.1533,15.8828,21.2187,25.957l36.9917,179.0986c3.1358,15.2832,18.1162,25.1299,33.3828,21.9688l0.1353-0.0254
			c15.2925-3.1612,25.1304-18.1162,21.9692-33.3838l-51.3652-248.6768v-40.1865c0-19.1572,15.52-34.6855,34.6904-34.6855h104.0196
			c19.1533,0,34.6728,15.5283,34.6728,34.6855v31.0947l-53.2275,257.7686c-3.1621,15.2676,6.6933,30.2226,21.9765,33.3838
			l0.1192,0.0254c15.2832,3.1611,30.2304-6.6855,33.3994-21.9688l36.9922-179.0986c2.0654-10.0742,10.9248-25.957,21.2178-25.957
			l0,0c10.2939,0,19.1367,15.8828,21.2187,25.957l37.0088,179.0986c3.1357,15.2832,18.0996,25.1299,33.3662,21.9688l0.1523-0.0254
			c15.2666-3.1612,25.1221-18.1162,21.961-33.3838l-52.7988-255.6821v-33.1812c0-19.1572,15.5205-34.6855,34.665-34.6855h95.3623
			C857.4482,418.4141,869.0986,406.7588,869.0986,392.3984z"/>
	</g>
	<linearGradient id="SVGID_1_" gradientUnits="userSpaceOnUse" x1="504.9956" y1="938.4531" x2="504.9956" y2="71.5381">
		<stop  offset="0" style="stop-color:#FEE0B5"/>
		<stop  offset="1" style="stop-color:#FFFFFF"/>
	</linearGradient>
	<path fill="url(#SVGID_1_)" d="M747.7295,88.8833c95.623,0,173.3828,77.7896,173.3828,173.3955v485.4673
		c0,95.6152-77.7598,173.3828-173.3828,173.3828H262.2622c-95.5893,0-173.3833-77.7676-173.3833-173.3828V262.2788
		c0-95.6059,77.794-173.3955,173.3833-173.3955H747.7295 M747.7295,71.5381H262.2622
		c-105.3433,0-190.7241,85.3935-190.7241,190.7407v485.4673c0,105.3262,85.3808,190.707,190.7241,190.707h485.4673
		c105.3262,0,190.7236-85.3808,190.7236-190.707V262.2788C938.4531,156.9316,853.0557,71.5381,747.7295,71.5381L747.7295,71.5381z"
		/>
</g>
</svg>
