<?xml version="1.0" encoding="utf-8"?>
<!-- Generator: Adobe Illustrator 17.1.0, SVG Export Plug-In . SVG Version: 6.00 Build 0)  -->
<!DOCTYPE svg PUBLIC "-//W3C//DTD SVG 1.1//EN" "http://www.w3.org/Graphics/SVG/1.1/DTD/svg11.dtd">
<svg version="1.1" id="Shopping" xmlns="http://www.w3.org/2000/svg" xmlns:xlink="http://www.w3.org/1999/xlink" x="0px" y="0px"
	 viewBox="0 0 1010 1010" enable-background="new 0 0 1010 1010" xml:space="preserve">
<linearGradient id="shopping-back_1_" gradientUnits="userSpaceOnUse" x1="505" y1="1010" x2="505" y2="-1.257285e-08">
	<stop  offset="0" style="stop-color:#FFA400"/>
	<stop  offset="1" style="stop-color:#FFCF00"/>
</linearGradient>
<path id="shopping-back" fill="url(#shopping-back_1_)" d="M1010,783.4561C1010,908.0625,908.7705,1010,785.0664,1010H224.9463
	C101.2124,1010,0,908.0625,0,783.4561V226.5435C0,101.9458,101.2124,0,224.9463,0h560.1201C908.7705,0,1010,101.9458,1010,226.5435
	V783.4561z"/>
<g id="shopping-shopping">
	<path id="shopping-icon" fill="#FFFFFF" d="M290.5498,732.4375c1.062,17.8965,16.5859,32.5488,34.5215,32.5488h359.8535
		c17.9307,0,33.459-14.6523,34.5049-32.5488l11.2119-183.3818H279.3418L290.5498,732.4375z M623.3926,612.0127
		c0-8.9697,5.5058-16.3037,12.2324-16.3037c6.7275,0,12.2324,7.334,12.2324,16.3037v98.2275
		c0,8.9865-5.5049,16.3125-12.2324,16.3125c-6.7266,0-12.2324-7.326-12.2324-16.3125V612.0127z M536.3096,612.0127
		c0-8.9697,5.5136-16.3037,12.2412-16.3037c6.7265,0,12.2226,7.334,12.2226,16.3037v98.2275
		c0,8.9865-5.4961,16.3125-12.2226,16.3125c-6.7276,0-12.2412-7.326-12.2412-16.3125V612.0127z M449.209,612.0127
		c0-8.9697,5.5098-16.3037,12.2324-16.3037c6.7315,0,12.228,7.334,12.228,16.3037v98.2275c0,8.9865-5.4965,16.3125-12.228,16.3125
		c-6.7226,0-12.2324-7.326-12.2324-16.3125V612.0127z M362.1426,612.0127c0-8.9697,5.5049-16.3037,12.228-16.3037
		c6.7271,0,12.2319,7.334,12.2319,16.3037v98.2275c0,8.9865-5.5048,16.3125-12.2319,16.3125c-6.7231,0-12.228-7.326-12.228-16.3125
		V612.0127z M477.3828,532.752H260.3906c-8.9697,0-16.3081-7.3516-16.3081-16.3125V450.874c0-8.9736,7.3384-16.3081,16.3081-16.3081
		h182.5l-10.4619,10.4663c-6.1875,6.1455-9.5469,14.3565-9.5469,23.0772c0,8.7129,3.3594,16.915,9.5093,23.0566l34.5933,34.5723
		C470.0068,528.7734,473.5391,531.1162,477.3828,532.752z M765.9131,450.874v65.5655c0,8.9609-7.334,16.3125-16.3037,16.3125
		h-246.856c3.8443-1.6358,7.3423-3.9786,10.3609-6.9971l91.2265-91.189h145.2686
		C758.5791,434.5659,765.9131,441.9004,765.9131,450.874z M443.9404,479.6504l34.5977,34.5723c6.3437,6.373,16.708,6.373,23.0605,0
		l206.8037-206.8003c6.3487-6.3311,6.3487-16.7212,0-23.0484l-34.5878-34.6181c-6.3653-6.3311-16.7178-6.3311-23.0743,0
		L443.9404,456.5771C437.5967,462.9336,437.5967,473.2983,443.9404,479.6504z M486.791,452.9521
		c9.8843,0,17.9053,8.0088,17.9053,17.8931c0,9.8882-8.021,17.8887-17.9053,17.8887c-9.8887,0-17.9057-8.0005-17.9057-17.8887
		C468.8853,460.9609,476.9023,452.9521,486.791,452.9521z"/>
</g>
</svg>
