<?xml version="1.0" encoding="utf-8"?>
<!-- Generator: Adobe Illustrator 17.1.0, SVG Export Plug-In . SVG Version: 6.00 Build 0)  -->
<!DOCTYPE svg PUBLIC "-//W3C//DTD SVG 1.1//EN" "http://www.w3.org/Graphics/SVG/1.1/DTD/svg11.dtd">
<svg version="1.1" id="Smilies" xmlns="http://www.w3.org/2000/svg" xmlns:xlink="http://www.w3.org/1999/xlink" x="0px" y="0px"
	 viewBox="0 0 1010 1010" enable-background="new 0 0 1010 1010" xml:space="preserve">
<linearGradient id="smilies-back_1_" gradientUnits="userSpaceOnUse" x1="505" y1="1010" x2="505" y2="-1.257285e-08">
	<stop  offset="0" style="stop-color:#E6E6E6"/>
	<stop  offset="1" style="stop-color:#FFFFFF"/>
</linearGradient>
<path id="smilies-back" fill="url(#smilies-back_1_)" d="M1010,783.4561C1010,908.0625,908.7705,1010,785.0664,1010H224.9502
	C101.2124,1010,0,908.0625,0,783.4561V226.5435C0,101.9375,101.2124,0,224.9502,0h560.1162C908.7705,0,1010,101.9375,1010,226.5435
	V783.4561z"/>
<g id="smilies-smilies">
	<g>
		<path fill="#FF9400" d="M505,239.8545c146.1953,0,265.1289,118.9497,265.1289,265.1289
			c0,146.2041-118.9336,265.1367-265.1289,265.1367c-146.1958,0-265.1284-118.9326-265.1284-265.1367
			C239.8716,358.8042,358.8042,239.8545,505,239.8545 M505,210.3994c-162.4492,0-294.583,132.1514-294.583,294.584
			c0,162.4482,132.1338,294.5996,294.583,294.5996c162.4404,0,294.584-132.1514,294.584-294.5996
			C799.584,342.5508,667.4404,210.3994,505,210.3994L505,210.3994z"/>
		<path fill="#FF9400" d="M449.7656,416.6016c0,18.3017-14.8457,33.1474-33.1386,33.1474
			c-18.3189,0-33.1392-14.8457-33.1392-33.1474c0-18.294,14.8203-33.1392,33.1392-33.1392
			C434.9199,383.4624,449.7656,398.3076,449.7656,416.6016z"/>
		<path fill="#FF9400" d="M626.5117,416.6016c0,18.3017-14.8359,33.1474-33.1387,33.1474
			c-18.3105,0-33.1386-14.8457-33.1386-33.1474c0-18.294,14.8281-33.1392,33.1386-33.1392
			C611.6758,383.4624,626.5117,398.3076,626.5117,416.6016z"/>
		<g>
			<path fill="#FF9400" d="M711.8252,533.8311c-1.5342-13.7081-18.3184-12.2159-26.7402-10.2598
				c-11.4738,2.6807-23.0988,4.8135-34.7325,6.6943c-32.1943,5.1924-64.7177,8.4805-97.2666,10.2256
				c-16.0175,0.8506-32.0351,1.3145-48.0522,1.3145c-35.9546,0-71.9341-1.5508-107.7373-4.7207
				c-17.1133-1.5254-34.2349-2.9424-51.2134-5.5889c-6.1284-0.9697-12.2236-2.1836-18.3101-3.457
				c-5.8505-1.2305-11.9204-3.8272-17.9897-3.2032c-9.2061,0.9532-9.9561,9.7705-9.147,17.5938
				c1.6861,16.3711,4.333,29.9355,10.1245,45.3545c10.9512,29.2441,29.7164,55.3604,53.6836,75.3574
				c26.3189,21.9434,58.3619,36.3926,91.8462,43.2627c16.0259,3.2715,32.3887,4.8652,48.7432,4.8652
				c82.6665,0,153.977-42.5555,186.8794-109.7617C697.25,590.5742,713.124,545.3721,711.8252,533.8311z M505.0337,563.8926
				c61.102,0,132.6401-11.1778,173.3491-18.3604c4.4004-0.7842,7.3086,10.5205,4.6035,14.0694
				c-14.3574,18.791-87.4375,54.6279-177.9863,54.6279c-88.6602,0-165.897-29.8848-179.1997-48.1787
				c-2.647-3.5995-1.939-14.8623,2.4868-14.2217C371.2891,558.1436,448.5181,563.8926,505.0337,563.8926z"/>
		</g>
	</g>
</g>
</svg>
