<?xml version="1.0" encoding="utf-8"?>
<!-- Generator: Adobe Illustrator 17.1.0, SVG Export Plug-In . SVG Version: 6.00 Build 0)  -->
<!DOCTYPE svg PUBLIC "-//W3C//DTD SVG 1.1//EN" "http://www.w3.org/Graphics/SVG/1.1/DTD/svg11.dtd">
<svg version="1.1" id="Sounds" xmlns="http://www.w3.org/2000/svg" xmlns:xlink="http://www.w3.org/1999/xlink" x="0px" y="0px"
	 viewBox="0 0 1010 1010" enable-background="new 0 0 1010 1010" xml:space="preserve">
<linearGradient id="sounds-back_1_" gradientUnits="userSpaceOnUse" x1="505" y1="1010" x2="505" y2="-1.257285e-08">
	<stop  offset="0" style="stop-color:#FF2C55"/>
	<stop  offset="1" style="stop-color:#FF4166"/>
</linearGradient>
<path id="sounds-back" fill="url(#sounds-back_1_)" d="M1010,783.4561C1010,908.0625,908.7705,1010,785.0664,1010H224.9502
	C101.2124,1010,0,908.0625,0,783.4561V226.5435C0,101.9458,101.2124,0,224.9502,0h560.1162C908.7705,0,1010,101.9458,1010,226.5435
	V783.4561z"/>
<g id="sounds-sounds">
	<polygon fill="#FFFFFF" points="452.7539,309.7832 326.4536,414.2744 191.5498,414.2744 191.5498,501.333 191.5498,501.333 
		191.5498,501.333 191.5498,588.4082 320.0254,588.4082 452.7539,692.8916 	"/>
	<g>
		<path fill="#FFFFFF" d="M705.208,243.3867c-6.9892,5.0332-8.1523,14.4492-2.8584,21.126
			C755.249,331.2207,786.668,414.5693,786.668,505c0,90.4297-31.419,173.7705-84.3184,240.4785
			c-5.2939,6.6768-4.1308,16.1104,2.8584,21.1426l0.3291,0.2275c6.7774,4.882,16.5567,3.7686,21.6992-2.7138
			C784.4258,692.2334,818.4502,602.377,818.4502,505c0-97.3682-34.0244-187.2256-91.2139-259.1431
			c-5.1425-6.4829-14.9218-7.5786-21.6992-2.6977L705.208,243.3867z"/>
		<path fill="#FFFFFF" d="M724.6055,505c0-74.5566-31.2676-141.77-81.1407-189.0801c-5.4033-5.1338-14.0527-5.4629-20.122-1.0874
			l-0.4385,0.3286c-7.5371,5.4121-8.4219,15.9922-1.7539,22.3399C665.207,379.2559,692.8408,438.7812,692.8408,505
			c0,66.2109-27.6338,125.7529-71.6904,167.4902c-6.668,6.3654-5.7832,16.9532,1.7539,22.3565l0.4385,0.3125
			c6.0693,4.3916,14.7187,4.0635,20.122-1.0713C693.3379,646.7617,724.6055,579.5479,724.6055,505z"/>
		<path fill="#FFFFFF" d="M546.4258,381.397l-0.3789,0.2612c-7.1153,5.126-8.3379,14.9385-2.5469,21.438
			c23.3271,26.1504,37.7764,62.1216,37.7764,101.9038c0,39.7812-14.4493,75.7451-37.7764,101.9199
			c-5.791,6.4746-4.5684,16.2881,2.5469,21.4131l0.3789,0.2695c6.6601,4.7969,16.0176,3.6758,21.4209-2.4189
			C595.793,594.6885,613.0576,552.0312,613.0576,505c0-47.0322-17.2646-89.6968-45.2109-121.1919
			C562.4434,377.73,553.0859,376.6084,546.4258,381.397z"/>
	</g>
</g>
</svg>
