<?xml version="1.0" encoding="utf-8"?>
<!-- Generator: Adobe Illustrator 17.1.0, SVG Export Plug-In . SVG Version: 6.00 Build 0)  -->
<!DOCTYPE svg PUBLIC "-//W3C//DTD SVG 1.1//EN" "http://www.w3.org/Graphics/SVG/1.1/DTD/svg11.dtd">
<svg version="1.1" id="Telephone" xmlns="http://www.w3.org/2000/svg" xmlns:xlink="http://www.w3.org/1999/xlink" x="0px" y="0px"
	 viewBox="0 0 1010 1010" enable-background="new 0 0 1010 1010" xml:space="preserve">
<linearGradient id="telephone-back_1_" gradientUnits="userSpaceOnUse" x1="505" y1="1010" x2="505" y2="-1.257285e-08">
	<stop  offset="0" style="stop-color:#3AAA35"/>
	<stop  offset="1" style="stop-color:#6CDE66"/>
</linearGradient>
<path id="telephone-back" fill="url(#telephone-back_1_)" d="M1010,783.4561C1010,908.0537,908.7705,1010,785.0664,1010H224.9463
	C101.2124,1010,0,908.0537,0,783.4561V226.5435C0,101.9458,101.2124,0,224.9463,0h560.1201C908.7705,0,1010,101.9458,1010,226.5435
	V783.4561z"/>
<g id="telephone-telephone">
	<path id="telephone-telephone_1_" fill="#FFFFFF" d="M743.3037,648.582l-100.3105-62.1133
		c-9.6523-5.9687-25.0459-5.3779-34.21,1.3067l-14.373,10.4785c-9.1553,6.7022-19.2373,9.7627-19.2373,9.7627
		c-8.5147,1.4414-37.1768,4.2061-63.1885-18.5635c-3.7686-3.2959-64.124-62.8379-91.2017-93.7812
		c-22.7573-26.0157-20.0132-54.6905-18.5591-63.1836c0,0,3.0518-10.0786,9.7412-19.2505l10.4956-14.3735
		c6.6851-9.1719,7.2793-24.5616,1.3023-34.2095l-62.0923-100.3023c-5.9726-9.6562-19.5874-14.3774-30.2558-10.4951l-36.0894,20.4473
		c0,0-60.5664,33.7412-33.5225,117.7773c24.0767,74.7881,58.4546,123.793,150.4361,214.9141
		c91.9814,91.1221,207.1675,147.8564,251.8637,150.4365c44.7139,2.5791,90.835-67.8125,89.6885-78.6201
		C757.6689,668.1484,752.9473,654.543,743.3037,648.582z"/>
</g>
</svg>
