<?xml version="1.0" encoding="utf-8"?>
<!-- Generator: Adobe Illustrator 17.1.0, SVG Export Plug-In . SVG Version: 6.00 Build 0)  -->
<!DOCTYPE svg PUBLIC "-//W3C//DTD SVG 1.1//EN" "http://www.w3.org/Graphics/SVG/1.1/DTD/svg11.dtd">
<svg version="1.1" id="Weather" xmlns="http://www.w3.org/2000/svg" xmlns:xlink="http://www.w3.org/1999/xlink" x="0px" y="0px"
	 viewBox="0 0 1010 1010" enable-background="new 0 0 1010 1010" xml:space="preserve">
<linearGradient id="weather-back_1_" gradientUnits="userSpaceOnUse" x1="505" y1="1010" x2="505" y2="-1.257285e-08">
	<stop  offset="0" style="stop-color:#2DCCD4"/>
	<stop  offset="1" style="stop-color:#438BF0"/>
</linearGradient>
<path id="weather-back" fill="url(#weather-back_1_)" d="M1010,783.4561C1010,908.0625,908.7705,1010,785.0664,1010H224.9502
	C101.2124,1010,0,908.0625,0,783.4561V226.5435C0,101.9458,101.2124,0,224.9502,0h560.1162C908.7705,0,1010,101.9458,1010,226.5435
	V783.4561z"/>
<g id="weather-weather">
	<path fill="#FFCF00" d="M346.5132,525.2832c0-0.2949-0.0171-0.6074-0.0171-0.9355c0-87.8008,71.1758-158.9678,158.9761-158.9678
		c0.2866,0,0.5561,0.0166,0.8432,0.0166c-27.6679-46.7959-78.6113-78.1983-136.9145-78.1983
		c-87.7998,0-158.9839,71.1929-158.9839,158.9761c0,56.3892,29.3789,105.8823,73.6455,134.1148
		C295.5024,553.7686,318.3901,533.3672,346.5132,525.2832z"/>
	<path fill="#FFFFFF" d="M669.0342,461.6943c-2.2432,0-4.4854,0.0674-6.711,0.1856c-25.6357-52.8067-79.6562-89.25-142.2246-89.5791
		c-0.287,0-0.5478-0.0337-0.8349-0.0337c-87.7915,0-158.9927,71.1841-158.9927,158.9673c0,0.329,0.0337,0.6406,0.0337,0.9531
		c-28.1231,8.0508-51.0108,28.4687-62.4502,54.9893c-5.0752,11.8027-7.9077,24.7509-7.9077,38.4169
		c0,53.6827,43.5166,97.1993,97.1743,97.1993c32.9619,0,244.0273,0,281.9131,0c72.1025,0,130.5498-58.4375,130.5498-130.5576
		C799.584,520.1484,741.1367,461.6943,669.0342,461.6943z"/>
</g>
</svg>
