<?xml version="1.0" encoding="utf-8"?>
<!-- Generator: Adobe Illustrator 17.1.0, SVG Export Plug-In . SVG Version: 6.00 Build 0)  -->
<!DOCTYPE svg PUBLIC "-//W3C//DTD SVG 1.1//EN" "http://www.w3.org/Graphics/SVG/1.1/DTD/svg11.dtd">
<svg version="1.1" id="WiFi" xmlns="http://www.w3.org/2000/svg" xmlns:xlink="http://www.w3.org/1999/xlink" x="0px" y="0px"
	 viewBox="0 0 1010 1010" enable-background="new 0 0 1010 1010" xml:space="preserve">
<linearGradient id="wifi-back_1_" gradientUnits="userSpaceOnUse" x1="505" y1="1010" x2="505" y2="-1.257285e-08">
	<stop  offset="0" style="stop-color:#007AFF"/>
	<stop  offset="1" style="stop-color:#02ADEF"/>
</linearGradient>
<path id="wifi-back" fill="url(#wifi-back_1_)" d="M1010,783.4561C1010,908.0625,908.7705,1010,785.0664,1010H224.9463
	C101.2124,1010,0,908.0625,0,783.4561V226.5435C0,101.9458,101.2124,0,224.9463,0h560.1201C908.7705,0,1010,101.9458,1010,226.5435
	V783.4561z"/>
<g id="wifi-wi-fi">
	<path fill="#FFFFFF" d="M504.8145,356.0981c95.6992,0,182.8837,35.6934,249.7685,94.2408l46.4502-51.9888
		c-79.209-69.6665-182.6387-118.3765-296.2187-118.3765c-113.4107,0-216.7222,48.5576-295.8477,118.0899l46.3574,51.997
		C322.1543,391.606,409.2207,356.0981,504.8145,356.0981z"/>
	<path fill="#FFFFFF" d="M504.8145,506.0371c57.3251,0,109.7607,21.0586,150.1748,55.8408l49.1142-54.9726
		c-53.4385-46.5518-123.0293-76.9507-199.289-76.9507c-76.1709,0-145.6563,30.3149-199.0909,76.7056l49.0469,55.0244
		C395.1934,527.0449,447.5146,506.0371,504.8145,506.0371z"/>
	<path fill="#FFFFFF" d="M605.833,616.9023c-27.3389-23.0312-62.5596-38.9814-101.0185-38.9814
		c-38.4498,0-73.6202,15.8994-100.9512,38.8457l100.9512,113.2676L605.833,616.9023z"/>
</g>
</svg>
