<?xml version="1.0" encoding="utf-8"?>
<!-- Generator: Adobe Illustrator 17.1.0, SVG Export Plug-In . SVG Version: 6.00 Build 0)  -->
<!DOCTYPE svg PUBLIC "-//W3C//DTD SVG 1.1//EN" "http://www.w3.org/Graphics/SVG/1.1/DTD/svg11.dtd">
<svg version="1.1" id="Your-App-Design" xmlns="http://www.w3.org/2000/svg" xmlns:xlink="http://www.w3.org/1999/xlink" x="0px"
	 y="0px" viewBox="0 0 1010 1010" enable-background="new 0 0 1010 1010" xml:space="preserve">
<g>
	<g>
		<path fill="#FFFFFF" d="M226.375,1001.293c-120.0225,0-217.668-97.6455-217.668-217.668v-557.25
			c0-58.1421,22.6416-112.8042,63.7549-153.916C113.5742,31.3477,168.2349,8.707,226.375,8.707h557.25
			c58.1406,0,112.8008,22.6406,153.9131,63.752c41.1133,41.1118,63.7549,95.7734,63.7549,153.916v557.25
			c0,120.0225-97.6455,217.668-217.668,217.668H226.375z"/>
		<g>
			<path fill="#D1D1D1" d="M783.625,17.4138c28.2165,0,55.58,5.5223,81.3301,16.4135c24.881,10.5235,47.23,25.5925,66.4263,44.7883
				c19.1967,19.1962,34.2662,41.545,44.7902,66.4258c10.8918,25.7509,16.4145,53.1154,16.4145,81.3335v557.25
				c0,28.214-5.5227,55.5762-16.4145,81.3262c-10.5242,24.8807-25.5939,47.23-44.7905,66.4272
				c-19.1968,19.1973-41.546,34.2676-66.4266,44.7922c-25.7505,10.8926-53.1139,16.4156-81.3295,16.4156h-557.25
				c-28.2157,0-55.5788-5.523-81.3293-16.4156c-24.8807-10.5245-47.2298-25.5948-66.4267-44.7924
				c-19.1967-19.197-34.2665-41.5463-44.7907-66.427c-10.8918-25.75-16.4145-53.1122-16.4145-81.3262v-557.25
				c0-28.2181,5.5227-55.5826,16.4147-81.3335c10.5238-24.8809,25.5935-47.2297,44.7902-66.4258
				C97.815,59.4199,120.164,44.3508,145.045,33.8273c25.7502-10.8912,53.1137-16.4135,81.33-16.4135H783.625 M783.625,0h-557.25
				C101.356,0,0,101.3472,0,226.375v557.25C0,908.6357,101.356,1010,226.375,1010h557.25C908.6445,1010,1010,908.6357,1010,783.625
				v-557.25C1010,101.3472,908.6445,0,783.625,0L783.625,0z"/>
		</g>
	</g>
</g>
<path fill="#D1D1D1" d="M505,261.208c134.4277,0,243.7998,109.3565,243.7998,243.792
	c0,134.4189-109.3721,243.7832-243.7998,243.7832c-134.4272,0-243.7915-109.3643-243.7915-243.7832
	C261.2085,370.5645,370.5728,261.208,505,261.208 M505,243.7832c-144.2568,0-261.1997,116.9512-261.1997,261.2168
	c0,144.248,116.9429,261.208,261.1997,261.208S766.209,649.248,766.209,505C766.209,360.7344,649.2568,243.7832,505,243.7832
	L505,243.7832z"/>
<path fill="#D1D1D1" d="M505,330.8667c96.0273,0,174.1328,78.1055,174.1328,174.1333c0,96.0195-78.1055,174.1328-174.1328,174.1328
	c-96.0107,0-174.1333-78.1133-174.1333-174.1328C330.8667,408.9722,408.9893,330.8667,505,330.8667 M505,313.4414
	c-105.79,0-191.5498,85.7598-191.5498,191.5586c0,105.7812,85.7598,191.541,191.5498,191.541S696.5498,610.7812,696.5498,505
	C696.5498,399.2012,610.79,313.4414,505,313.4414L505,313.4414z"/>
<path fill="#D1D1D1" d="M505,69.6499c240.0566,0,435.3496,195.293,435.3496,435.3501c0,240.0488-195.293,435.3496-435.3496,435.3496
	C264.9429,940.3496,69.6499,745.0488,69.6499,505C69.6499,264.9429,264.9429,69.6499,505,69.6499 M505,52.2417
	C254.9531,52.2417,52.2417,254.9531,52.2417,505S254.9531,957.7578,505,957.7578S957.7578,755.0469,957.7578,505
	S755.0469,52.2417,505,52.2417L505,52.2417z"/>
<g>
	<path fill="#D1D1D1" d="M957.7578,81.7725c-8.9102-10.7232-18.8066-20.6202-29.539-29.5308h-231.669V0h-17.417v52.2417H522.417V0
		H505v52.2417H330.8667V0h-17.4165v52.2417H81.7812c-10.7319,8.9106-20.6123,18.8076-29.5395,29.5308v231.6689H0v17.4253h52.2417
		V505H0v17.4082h52.2417v156.7246H0v17.4082h52.2417v231.6778c8.9272,10.7314,18.8076,20.6123,29.5395,29.539h231.669V1010h17.4165
		v-52.2422H505V1010h17.417v-52.2422h156.7158V1010h17.417v-52.2422h231.669c10.7324-8.9267,20.6288-18.8076,29.539-29.539V696.541
		H1010v-17.4082h-52.2422V522.4082H1010V505h-52.2422V330.8667H1010v-17.4253h-52.2422V81.7725z M69.6499,80.7524l232.689,232.689
		H69.6499V80.7524z M69.6499,696.541h231.9473L69.6499,928.4805V696.541z M313.4502,940.3496H82.4219l231.0283-231.0283V940.3496z
		 M313.4502,679.1328H69.6499V522.4082h243.8003V679.1328z M313.4502,505H69.6499V330.8667h243.8003V505z M313.4502,299.9277
		L83.1719,69.6499h230.2783V299.9277z M330.8667,341.9609l162.6514,162.6597L493.1475,505H330.8667V341.9609z M330.8667,522.4082
		h144.8638L330.8667,667.2803V522.4082z M505,940.3496H330.8667V696.541H505V940.3496z M505,679.1328H343.6387L500.355,522.4082H505
		V679.1328z M505,491.4697l-160.6113-160.603H505V491.4697z M505,313.4414H330.8667V69.6499H505V313.4414z M522.417,330.8667
		h144.8633L522.417,475.7305V330.8667z M522.417,533.5107l145.6143,145.6221H522.417V533.5107z M679.1328,940.3496H522.417V696.541
		h156.7158V940.3496z M679.1328,665.6113L535.9297,522.4082h143.2031V665.6113z M679.1328,505H522.417v-4.6533l156.7158-156.7168
		V505z M679.1328,313.4414H522.417V69.6499h156.7158V313.4414z M696.5498,69.6499h231.9385l-231.9385,231.939V69.6499z
		 M696.5498,940.3496V707.6611l232.6895,232.6885H696.5498z M940.3496,926.8193L710.0723,696.541h230.2773V926.8193z
		 M940.3496,679.1328H696.5498V522.4082h243.7998V679.1328z M940.3496,505H696.5498V330.8667h243.7998V505z M940.3496,313.4414
		H709.3301L940.3496,82.4219V313.4414z"/>
</g>
</svg>
