<svg xmlns="http://www.w3.org/2000/svg" xmlns:xlink="http://www.w3.org/1999/xlink" preserveAspectRatio="xMidYMid meet" version="1.1" id="Layer_1" viewBox="0 0 398.156 398.156" x="0px" y="0px" xml:space="preserve" fill="#000000" width="12" height="12" style="enable-background:new 0 0 398.156 398.156;">
    <g transform="translate(0 -1)">
        <g>
        <path style="fill:#603B23;" d="M409.612,513.006c-3.132,0-6.144-1.724-7.646-4.719l-34.133-68.267 c-1.058-2.116-1.186-4.591-0.35-6.81l24.286-64.785l-23.936-47.872c-2.108-4.215-0.393-9.335,3.823-11.452 c4.215-2.099,9.335-0.393,11.452,3.823l25.6,51.2c1.058,2.116,1.186,4.591,0.358,6.81l-24.294,64.785l32.469,64.939 c2.108,4.215,0.393,9.335-3.823,11.452C412.197,512.716,410.892,513.006,409.612,513.006"></path>
        <path style="fill:#603B23;" d="M102.395,513.006c-1.28,0-2.586-0.29-3.806-0.896c-4.215-2.116-5.931-7.236-3.823-11.452 l32.469-64.939l-24.294-64.785c-0.828-2.219-0.7-4.693,0.358-6.81l25.6-51.2c2.116-4.215,7.236-5.922,11.452-3.823 c4.215,2.116,5.931,7.236,3.823,11.452l-23.936,47.872l24.286,64.785c0.836,2.219,0.708,4.693-0.35,6.81l-34.133,68.267 C108.539,511.283,105.526,513.006,102.395,513.006"></path>
        <path style="fill:#603B23;" d="M494.937,325.277c-0.887,0-1.801-0.145-2.697-0.444l-25.6-8.533 c-1.801-0.597-3.354-1.784-4.403-3.362l-32.179-48.256l-39.194-7.842c-0.742-0.145-1.468-0.393-2.142-0.734l-17.067-8.533 c-4.216-2.108-5.931-7.236-3.823-11.452c2.125-4.215,7.228-5.922,11.452-3.814l16.043,8.021l41.549,8.311 c2.219,0.444,4.173,1.749,5.427,3.635l32.512,48.759l22.818,7.612c4.471,1.493,6.886,6.323,5.393,10.795 C501.84,323.016,498.512,325.277,494.937,325.277"></path>
        <path style="fill:#603B23;" d="M17.07,325.277c-3.575,0-6.903-2.261-8.09-5.837c-1.493-4.471,0.922-9.301,5.393-10.795 l22.818-7.612l32.512-48.759c1.254-1.886,3.209-3.191,5.427-3.635l41.549-8.311l16.043-8.021 c4.215-2.108,9.335-0.401,11.452,3.814c2.108,4.215,0.393,9.344-3.823,11.452l-17.067,8.533c-0.674,0.341-1.399,0.589-2.142,0.734 l-39.194,7.842L49.77,312.938c-1.05,1.579-2.603,2.765-4.403,3.362l-25.6,8.533C18.87,325.132,17.957,325.277,17.07,325.277"></path>
        <path style="fill:#603B23;" d="M307.195,111.94c-3.985,0-7.552-2.807-8.354-6.861c-0.93-4.617,2.074-9.114,6.69-10.035 l39.194-7.842l32.179-48.265c1.254-1.877,3.209-3.191,5.427-3.627l39.194-7.842l15.113-22.665 c2.611-3.917,7.902-4.992,11.836-2.364c3.925,2.611,4.983,7.91,2.364,11.836l-17.067,25.6c-1.254,1.877-3.209,3.191-5.427,3.627 l-39.194,7.842L356.97,99.609c-1.254,1.877-3.209,3.191-5.427,3.627l-42.667,8.533C308.313,111.889,307.741,111.94,307.195,111.94 "></path>
        <path style="fill:#603B23;" d="M204.812,111.94c-0.555,0-1.118-0.051-1.681-0.171l-42.667-8.533 c-2.219-0.435-4.173-1.749-5.427-3.627l-32.179-48.265l-39.194-7.842c-2.219-0.435-4.173-1.749-5.427-3.627l-17.067-25.6 c-2.62-3.925-1.562-9.225,2.364-11.836c3.934-2.628,9.225-1.553,11.836,2.364l15.113,22.665l39.194,7.842 c2.219,0.435,4.173,1.749,5.427,3.627l32.179,48.265l39.194,7.842c4.617,0.922,7.62,5.419,6.69,10.035 C212.364,109.132,208.797,111.94,204.812,111.94"></path>
        </g> 
        <path style="fill:#805333;" d="M324.149,172.706c-44.817,10.547-91.477,10.547-136.294,0l-76.919-18.099 c0,0,25.6,4.267,25.6,119.467c0,37.171,12.151,73.421,35.132,102.639c18.893,24.013,46.293,50.15,84.335,68.028 c38.042-17.877,65.451-44.015,84.335-68.028c22.98-29.218,35.132-65.468,35.132-102.639c0-115.2,25.6-119.467,25.6-119.467 L324.149,172.706z"></path>
        <path style="fill:#603B23;" d="M298.67,69.273l-42.667-8.533l-42.667,8.533c0,0,6.665,85.333-102.4,85.333l76.919,18.099 c44.817,10.547,91.469,10.547,136.294,0l76.919-18.099C292.005,154.606,298.67,69.273,298.67,69.273"></path>
    </g> 
</svg>